<?xml version="1.0" encoding="UTF-8" standalone="no"?>
<!-- Created with Inkscape (http://www.inkscape.org/) -->

<svg
   width="207.02344mm"
   height="105.80005mm"
   viewBox="0 0 207.02344 105.80005"
   version="1.1"
   id="svg5"
   sodipodi:docname="boba_engine.svg"
   inkscape:version="1.2.1 (9c6d41e410, 2022-07-14, custom)"
   xmlns:inkscape="http://www.inkscape.org/namespaces/inkscape"
   xmlns:sodipodi="http://sodipodi.sourceforge.net/DTD/sodipodi-0.dtd"
   xmlns:xlink="http://www.w3.org/1999/xlink"
   xmlns="http://www.w3.org/2000/svg"
   xmlns:svg="http://www.w3.org/2000/svg">
  <sodipodi:namedview
     id="namedview7"
     pagecolor="#22272e"
     bordercolor="#000000"
     borderopacity="0.25"
     inkscape:showpageshadow="2"
     inkscape:pageopacity="0"
     inkscape:pagecheckerboard="0"
     inkscape:deskcolor="#d1d1d1"
     inkscape:document-units="mm"
     showgrid="false"
     inkscape:zoom="1.7342944"
     inkscape:cx="391.802"
     inkscape:cy="200.36967"
     inkscape:window-width="3424"
     inkscape:window-height="1366"
     inkscape:window-x="8"
     inkscape:window-y="36"
     inkscape:window-maximized="0"
     inkscape:current-layer="layer1" />
  <defs
     id="defs2">
    <linearGradient
       inkscape:collect="always"
       id="linearGradient1055">
      <stop
         style="stop-color:#ff9a9a;stop-opacity:1;"
         offset="0"
         id="stop1051" />
      <stop
         style="stop-color:#ffc0c0;stop-opacity:1;"
         offset="1"
         id="stop1053" />
    </linearGradient>
    <rect
       x="34.44873"
       y="660.58185"
       width="720.29504"
       height="151.39432"
       id="rect6704" />
    <linearGradient
       inkscape:collect="always"
       id="linearGradient4685">
      <stop
         style="stop-color:#ff9a9a;stop-opacity:1;"
         offset="0"
         id="stop4681" />
      <stop
         style="stop-color:#ffc0c0;stop-opacity:1;"
         offset="1"
         id="stop4683" />
    </linearGradient>
    <linearGradient
       inkscape:collect="always"
       id="linearGradient4174">
      <stop
         style="stop-color:#d38d5f;stop-opacity:1;"
         offset="0"
         id="stop4170" />
      <stop
         style="stop-color:#ecaf87;stop-opacity:1;"
         offset="1"
         id="stop4172" />
    </linearGradient>
    <linearGradient
       inkscape:collect="always"
       xlink:href="#linearGradient4174"
       id="linearGradient4176"
       x1="77.17057"
       y1="162.43988"
       x2="82.167351"
       y2="137.09457"
       gradientUnits="userSpaceOnUse" />
    <linearGradient
       inkscape:collect="always"
       xlink:href="#linearGradient4685"
       id="linearGradient4687"
       x1="93.81012"
       y1="111.50431"
       x2="93.983002"
       y2="106.79387"
       gradientUnits="userSpaceOnUse"
       gradientTransform="matrix(0.86258242,0,0,0.91923386,38.83544,-21.018025)" />
    <linearGradient
       inkscape:collect="always"
       xlink:href="#linearGradient1055"
       id="linearGradient1057"
       x1="82.080254"
       y1="131.51376"
       x2="86.373268"
       y2="124.40855"
       gradientUnits="userSpaceOnUse"
       gradientTransform="translate(0.56563648,-1.5872013)" />
  </defs>
  <g
     inkscape:label="Layer 1"
     inkscape:groupmode="layer"
     id="layer1"
     transform="translate(-1.6368144,-98.73924)">
    <rect
       style="fill:#f9f5f3;fill-opacity:1;stroke:none;stroke-width:3.12373;stroke-dasharray:none;stroke-opacity:1"
       id="rect6647"
       width="207.02345"
       height="105.80006"
       x="1.6368144"
       y="98.739243"
       ry="15.968637" />
    <circle
       style="fill:#ffffff;fill-opacity:1;stroke:none;stroke-width:3.206;stroke-dasharray:none;stroke-opacity:1"
       id="path5841"
       cx="78.536789"
       cy="141.29057"
       r="22.261816"
       inkscape:export-filename="boba.svg"
       inkscape:export-xdpi="96"
       inkscape:export-ydpi="96" />
    <path
       id="path167"
       style="fill:#262626;fill-opacity:1;stroke-width:0.264583"
       d="m 27.207584,106.4569 c -5.96965,0.0723 -11.729552,1.57504 -14.236857,4.10208 -5.3473262,5.3894 -6.9772872,47.38813 -0.595312,52.68826 4.193026,3.48223 23.185364,5.77686 32.61403,-0.17157 7.194594,-4.84284 11.021624,-25.30593 -3.345016,-28.87886 7.109915,-4.90414 7.754106,-16.86913 1.059884,-23.25904 -3.34711,-3.19497 -9.527078,-4.55318 -15.496729,-4.48087 z m 0.06046,9.51105 c 2.553604,0.011 5.277265,0.53649 7.149951,1.73013 3.16732,2.01866 4.827053,8.31292 0.876949,11.76259 -3.982804,3.47821 -12.584424,3.86168 -14.602209,1.63711 -3.265208,-3.59986 -1.893936,-11.25956 0.03256,-13.40849 0.972979,-1.08532 3.648669,-1.73383 6.542753,-1.72134 z m 11.988231,28.0112 c 3.299614,3.44354 1.933601,8.82727 -0.957631,11.36477 -2.891231,2.5375 -14.543627,2.94947 -17.131643,0.32063 -2.588018,-2.62884 -3.5833,-9.02354 -1.095467,-11.67397 2.487834,-2.65044 14.69162,-4.32207 19.184741,-0.0114 z"
       sodipodi:nodetypes="sssccssccsssscssczs"
       inkscape:export-filename="boba.svg"
       inkscape:export-xdpi="96"
       inkscape:export-ydpi="96" />
    <path
       style="fill:#f6d3bd;fill-opacity:1;stroke:none;stroke-width:3.865;stroke-dasharray:none;stroke-opacity:1"
       d="m 61.556903,125.71003 c 3.237663,0.10929 6.152238,-1.3669 9.979054,-1.30844 3.826816,0.0585 8.023069,1.93729 11.985233,2.76719 3.962164,0.8299 7.337985,0.0667 10.396798,1.40669 3.058813,1.34001 3.237198,2.89438 6.875292,5.00274 2.74193,2.62325 -0.43332,15.84824 -0.43332,15.84824 0,0 -2.772715,8.30577 -10.356575,11.80671 -7.58386,3.50095 -16.277758,4.37004 -25.593589,-2.4211 -9.315828,-6.79114 -9.054975,-18.7032 -9.054975,-18.7032 z"
       id="path1226"
       sodipodi:nodetypes="csssccsscc" />
    <path
       style="fill:url(#linearGradient1057);fill-opacity:1;stroke:none;stroke-width:3.86501;stroke-dasharray:none;stroke-opacity:1"
       d="M 89.205159,106.46396 78.647523,128.2865 c 0,0 -0.34405,1.47206 3.774438,2.10566 4.897382,0.75343 5.071107,-1.25742 5.071107,-1.25742 l 9.600997,-20.15953 c 0,0 0.242844,-1.17173 -3.528511,-1.94893 -4.012723,-0.82694 -4.360395,-0.56232 -4.360395,-0.56232 z"
       id="path4624"
       sodipodi:nodetypes="ccsccsc" />
    <path
       style="fill:url(#linearGradient4176);fill-opacity:1;stroke:none;stroke-width:3.865;stroke-dasharray:none;stroke-opacity:1"
       d="m 61.514958,125.50877 c 1.986074,2.89252 5.519438,4.55118 8.448399,5.01789 3.311363,0.52765 8.675181,-0.0422 12.531835,0.54539 3.856655,0.58758 5.158195,1.60944 8.838402,1.83358 3.726319,0.22695 5.38663,-0.38234 8.32258,-1.44531 2.592456,0.13886 -1.345205,22.65576 -1.345205,22.65576 0,0 -0.393975,3.60419 -7.977835,7.10513 -7.58386,3.50095 -15.196824,5.77327 -24.512655,-1.01787 C 56.504651,153.4122 54.677057,139.3623 54.677057,139.3623 Z"
       id="path4134"
       sodipodi:nodetypes="csssccsscc" />
    <circle
       style="fill:none;fill-opacity:1;stroke:#262626;stroke-width:3.206;stroke-dasharray:none;stroke-opacity:1"
       id="path493"
       cx="78.505714"
       cy="140.93036"
       r="23.186172" />
    <circle
       style="fill:#28170b;fill-opacity:1;stroke:none;stroke-width:3.86501;stroke-dasharray:none;stroke-opacity:1"
       id="path4558"
       cx="69.745537"
       cy="154.12523"
       r="3.0601783" />
    <circle
       style="fill:#28170b;fill-opacity:1;stroke:none;stroke-width:3.86501;stroke-dasharray:none;stroke-opacity:1"
       id="path4562"
       cx="80.90947"
       cy="157.24084"
       r="3.186343" />
    <circle
       style="fill:#28170b;fill-opacity:1;stroke:none;stroke-width:3.86501;stroke-dasharray:none;stroke-opacity:1"
       id="path4564"
       cx="88.112503"
       cy="147.93866"
       r="3.1430774" />
    <circle
       style="fill:#28170b;fill-opacity:1;stroke:none;stroke-width:3.86501;stroke-dasharray:none;stroke-opacity:1"
       id="path4566"
       cx="76.725967"
       cy="148.81839"
       r="2.9602051" />
    <circle
       style="fill:#28170b;fill-opacity:1;stroke:none;stroke-width:3.86501;stroke-dasharray:none;stroke-opacity:1"
       id="path4568"
       cx="66.666481"
       cy="140.81229"
       r="2.768259" />
    <ellipse
       style="fill:url(#linearGradient4687);fill-opacity:1;stroke:none;stroke-width:3.44163;stroke-dasharray:none;stroke-opacity:1"
       id="path4679"
       cx="119.71574"
       cy="79.449455"
       rx="4.1279893"
       ry="2.3557291"
       transform="matrix(0.96466306,0.2634866,-0.28153833,0.95954998,0,0)" />
    <path
       id="path5415"
       style="fill:#262626;fill-opacity:1;stroke-width:0.264583"
       d="m 126.24155,106.47293 c -5.96965,0.0723 -11.72955,1.57504 -14.23685,4.10208 -5.34733,5.3894 -6.97729,47.38813 -0.59532,52.68826 4.19303,3.48223 23.18537,5.77686 32.61403,-0.17157 7.1946,-4.84284 11.02163,-25.30593 -3.34501,-28.87886 7.10991,-4.90414 7.7541,-16.86913 1.05988,-23.25904 -3.34711,-3.19497 -9.52708,-4.55318 -15.49673,-4.48087 z m 0.0605,9.51105 c 2.55361,0.011 5.27727,0.53649 7.14995,1.73013 3.16732,2.01866 4.82706,8.31292 0.87695,11.76259 -3.9828,3.47821 -12.58442,3.86168 -14.60221,1.63711 -3.2652,-3.59986 -1.89393,-11.25956 0.0326,-13.40849 0.97298,-1.08532 3.64867,-1.73383 6.54276,-1.72134 z m 11.98823,28.0112 c 3.29962,3.44354 1.93361,8.82727 -0.95763,11.36477 -2.89123,2.5375 -14.54362,2.94947 -17.13164,0.32063 -2.58802,-2.62884 -3.5833,-9.02354 -1.09547,-11.67397 2.48784,-2.65044 14.69162,-4.32207 19.18474,-0.0114 z"
       sodipodi:nodetypes="sssccssccsssscssczs" />
    <path
       id="path5471"
       style="fill:#262626;fill-opacity:1;stroke:none;stroke-width:3.9322;stroke-dasharray:none;stroke-opacity:1"
       d="m 177.30597,107.31304 c -2.79839,0.0383 -5.47981,0.72731 -6.75876,2.4316 -2.9233,3.8955 -17.0821,47.69081 -14.50299,52.07348 2.57911,4.38267 8.99478,3.3988 11.66234,1.17835 2.66756,-2.22044 2.23611,-11.46094 3.89382,-13.9349 1.65771,-2.47396 11.89274,-2.24429 13.61777,-0.32895 1.72503,1.91534 2.1716,11.10486 4.7377,13.8183 2.56609,2.71344 9.79253,2.67672 12.03647,-1.44474 2.24394,-4.12145 -13.81475,-49.12634 -16.04346,-51.48778 -1.25365,-1.32832 -5.04495,-2.35466 -8.64289,-2.30536 z m 1.31477,16.67836 c 5.16984,-0.19904 7.71857,9.44572 5.68522,12.38677 -2.03335,2.94106 -9.71282,2.59453 -11.72517,-0.27938 -2.01235,-2.87391 0.87011,-11.90834 6.03995,-12.10739 z"
       sodipodi:nodetypes="sssssssssszzzz" />
    <text
       xml:space="preserve"
       transform="matrix(0.35461471,0,0,0.35729375,31.713775,-69.996539)"
       id="text6702"
       style="font-size:96px;white-space:pre;shape-inside:url(#rect6704);fill:#4d4d4d;fill-opacity:1;stroke:none;stroke-width:12.1172;stroke-dasharray:none;stroke-opacity:1"><tspan
         x="34.449219"
         y="744.58203"
         id="tspan2338"><tspan
           style="font-weight:900;font-family:'Adobe Clean Black';-inkscape-font-specification:'Adobe Clean Black,  Heavy'"
           id="tspan2336">ENGINE</tspan></tspan></text>
  </g>
</svg>
